<svg xmlns="http://www.w3.org/2000/svg" viewBox="0 0 400 400" role="img" aria-label="Team member portrait">
  <defs><linearGradient id="bg3" x1="0" y1="0" x2="0" y2="1">
    <stop offset="0" stop-color="#13414e"/><stop offset="1" stop-color="#1b6b73"/></linearGradient></defs>
  <rect width="400" height="400" fill="url(#bg3)"/>
  <g opacity="0.12" stroke="#bfe0e4" fill="none" stroke-width="2">
    <circle cx="200" cy="210" r="150"/><circle cx="200" cy="210" r="110"/>
  </g>
  <!-- shoulders -->
  <path d="M70 400 Q70 290 200 290 Q330 290 330 400 Z" fill="#14555c"/>
  <path d="M170 270 h60 v40 h-60 Z" fill="#f0c9a8"/>
  <!-- head -->
  <circle cx="200" cy="200" r="78" fill="#f0c9a8"/>
  <path d="M118 320 Q108 150 200 92 Q292 150 282 320 L250 320 Q262 180 200 160 Q138 180 150 320 Z" fill="#6b4a2a"/>
  <!-- face marks -->
  <circle cx="174" cy="195" r="6" fill="#0b2a3a"/>
  <circle cx="226" cy="195" r="6" fill="#0b2a3a"/>
  <path d="M182 232 q18 16 36 0" stroke="#0b2a3a" stroke-width="4" fill="none" stroke-linecap="round"/>
</svg>