<svg xmlns="http://www.w3.org/2000/svg" viewBox="0 0 400 400" role="img" aria-label="Team member portrait">
  <defs><linearGradient id="bg1" x1="0" y1="0" x2="0" y2="1">
    <stop offset="0" stop-color="#13414e"/><stop offset="1" stop-color="#1b6b73"/></linearGradient></defs>
  <rect width="400" height="400" fill="url(#bg1)"/>
  <g opacity="0.12" stroke="#bfe0e4" fill="none" stroke-width="2">
    <circle cx="200" cy="210" r="150"/><circle cx="200" cy="210" r="110"/>
  </g>
  <!-- shoulders -->
  <path d="M70 400 Q70 290 200 290 Q330 290 330 400 Z" fill="#1b6b73"/>
  <path d="M170 270 h60 v40 h-60 Z" fill="#e7b894"/>
  <!-- head -->
  <circle cx="200" cy="200" r="78" fill="#e7b894"/>
  <path d="M120 175 Q120 95 200 95 Q280 95 280 175 Q280 150 200 150 Q120 150 120 175 Z" fill="#3a2a1c"/>
  <!-- face marks -->
  <circle cx="174" cy="195" r="6" fill="#0b2a3a"/>
  <circle cx="226" cy="195" r="6" fill="#0b2a3a"/>
  <path d="M182 232 q18 16 36 0" stroke="#0b2a3a" stroke-width="4" fill="none" stroke-linecap="round"/>
</svg>